<svg width="24" height="24" viewBox="0 0 24 24" fill="none" xmlns="http://www.w3.org/2000/svg">
<path d="M17.9969 17.322H4.49691C4.23355 17.322 3.98097 17.2174 3.79475 17.0312C3.60853 16.8449 3.50391 16.5924 3.50391 16.329V6.868C3.50391 6.60464 3.60853 6.35207 3.79475 6.16584C3.98097 5.97962 4.23355 5.875 4.49691 5.875H13.8379V6.6H4.49691C4.42583 6.6 4.35766 6.62824 4.3074 6.6785C4.25714 6.72876 4.22891 6.79692 4.22891 6.868V16.325C4.22891 16.3961 4.25714 16.4642 4.3074 16.5145C4.35766 16.5648 4.42583 16.593 4.49691 16.593H17.9969C18.068 16.593 18.1362 16.5648 18.1864 16.5145C18.2367 16.4642 18.2649 16.3961 18.2649 16.325V8.843H18.9899V16.329C18.9899 16.5924 18.8853 16.8449 18.6991 17.0312C18.5128 17.2174 18.2603 17.322 17.9969 17.322V17.322Z" fill="#5A4BDA" stroke="#5A4BDA" stroke-width="0.4"/>
<path d="M18.6262 14.25H3.86523V14.975H18.6262V14.25Z" fill="#5A4BDA" stroke="#5A4BDA" stroke-width="0.4"/>
<path d="M8.59745 19.783L8.31845 19.112L8.45945 19.445L8.31445 19.112C8.68956 18.9343 8.9875 18.6266 9.153 18.2459C9.3185 17.8653 9.34033 17.4375 9.21445 17.042L9.91445 16.875C10.0826 17.437 10.0419 18.0409 9.79987 18.5753C9.55784 19.1097 9.1308 19.5386 8.59745 19.783V19.783ZM14.1765 19.783C13.645 19.5387 13.2195 19.111 12.9778 18.5784C12.7361 18.0457 12.6944 17.4438 12.8605 16.883L13.5855 17.05C13.4581 17.4445 13.4784 17.8719 13.6424 18.2526C13.8065 18.6334 14.1032 18.9416 14.4775 19.12L14.1765 19.783Z" fill="#5A4BDA" stroke="#5A4BDA" stroke-width="0.4"/>
<path d="M15.7676 19.8113H6.72756C6.63142 19.8113 6.53922 19.7731 6.47124 19.7051C6.40325 19.6372 6.36506 19.545 6.36506 19.4488C6.36506 19.3527 6.40325 19.2605 6.47124 19.1925C6.53922 19.1245 6.63142 19.0863 6.72756 19.0863H15.7686C15.8647 19.0863 15.9569 19.1245 16.0249 19.1925C16.0929 19.2605 16.1311 19.3527 16.1311 19.4488C16.1311 19.545 16.0929 19.6372 16.0249 19.7051C15.9569 19.7731 15.8647 19.8113 15.7686 19.8113H15.7676ZM8.42356 11.1843C8.09881 11.1843 7.78134 11.088 7.51132 10.9076C7.24129 10.7272 7.03083 10.4707 6.90655 10.1707C6.78227 9.87064 6.74976 9.54049 6.81311 9.22197C6.87647 8.90346 7.03286 8.61088 7.26249 8.38124C7.49213 8.1516 7.78471 7.99522 8.10322 7.93186C8.42174 7.86851 8.75189 7.90102 9.05193 8.0253C9.35197 8.14958 9.60841 8.36004 9.78884 8.63007C9.96926 8.90009 10.0656 9.21756 10.0656 9.54231C10.0656 9.9778 9.89257 10.3954 9.58463 10.7034C9.2767 11.0113 8.85905 11.1843 8.42356 11.1843ZM8.42356 8.62531C8.2422 8.62531 8.0649 8.67909 7.9141 8.77985C7.7633 8.88062 7.64577 9.02383 7.57636 9.19139C7.50696 9.35895 7.4888 9.54333 7.52418 9.72121C7.55957 9.89909 7.6469 10.0625 7.77515 10.1907C7.90339 10.319 8.06678 10.4063 8.24467 10.4417C8.42255 10.4771 8.60692 10.4589 8.77448 10.3895C8.94204 10.3201 9.08526 10.2026 9.18602 10.0518C9.28678 9.90097 9.34056 9.72368 9.34056 9.54231C9.34056 9.42189 9.31684 9.30265 9.27076 9.19139C9.22468 9.08014 9.15713 8.97905 9.07198 8.8939C8.98683 8.80874 8.88574 8.7412 8.77448 8.69512C8.66323 8.64903 8.54399 8.62531 8.42356 8.62531V8.62531ZM11.3766 14.9723H5.47656V14.6103C5.50101 13.8436 5.82278 13.1164 6.37382 12.5826C6.92485 12.0489 7.66191 11.7504 8.42906 11.7504C9.19621 11.7504 9.93328 12.0489 10.4843 12.5826C11.0353 13.1164 11.3571 13.8436 11.3816 14.6103L11.3766 14.9723ZM6.22556 14.2473H10.6256C10.5405 13.7252 10.2725 13.2503 9.86945 12.9076C9.4664 12.5649 8.95461 12.3767 8.42556 12.3767C7.89652 12.3767 7.38472 12.5649 6.98168 12.9076C6.57864 13.2503 6.31062 13.7252 6.22556 14.2473V14.2473ZM14.9616 10.5713L14.7336 10.4713C14.6685 10.4362 14.6145 10.3839 14.5774 10.32C14.5404 10.2561 14.5217 10.1832 14.5236 10.1093V9.20331H14.1506C13.9718 9.20226 13.8007 9.13064 13.6744 9.00403C13.5482 8.87743 13.4771 8.70609 13.4766 8.52731V4.86931C13.4766 4.69056 13.5476 4.51912 13.674 4.39272C13.8004 4.26632 13.9718 4.19531 14.1506 4.19531H19.8236C20.0023 4.19531 20.1738 4.26632 20.3002 4.39272C20.4266 4.51912 20.4976 4.69056 20.4976 4.86931V8.53531C20.4965 8.71374 20.4252 8.88457 20.299 9.01074C20.1728 9.13691 20.002 9.20826 19.8236 9.20931H16.8916L14.9616 10.5713ZM14.2006 8.48331H15.2626V9.46531L16.6686 8.47231H19.7766V4.92031H14.2016L14.2006 8.48331Z" fill="#5A4BDA" stroke="#5A4BDA" stroke-width="0.4"/>
</svg>
